<svg width="100" height="100" viewBox="0 0 100 100" fill="none" xmlns="http://www.w3.org/2000/svg">
<g clip-path="url(#clip0)">
<rect width="100" height="100" fill="white"/>
<rect y="-10" width="100" height="114" fill="#39DBAA"/>
<path d="M38.3457 90.291C38.9902 90.291 39.4688 90.084 39.7812 89.6699C40.0977 89.2559 40.2559 88.6641 40.2559 87.8945C40.2559 87.0273 40.1035 86.375 39.7988 85.9375C39.498 85.4961 39.0098 85.2754 38.334 85.2754C38.0332 85.2754 37.7676 85.3398 37.5371 85.4688C37.3066 85.5977 37.1211 85.7773 36.9805 86.0078C36.8398 86.2383 36.7324 86.5039 36.6582 86.8047C36.5879 87.1016 36.5527 87.4277 36.5527 87.7832C36.5527 88.2832 36.6133 88.7168 36.7344 89.084C36.8594 89.4512 37.0586 89.7441 37.332 89.9629C37.6055 90.1816 37.9434 90.291 38.3457 90.291ZM40.2734 90.0684C40.0625 90.3926 39.7812 90.6504 39.4297 90.8418C39.0781 91.0332 38.6855 91.1289 38.252 91.1289C37.4043 91.1289 36.7402 90.8281 36.2598 90.2266C35.7793 89.6211 35.5391 88.7988 35.5391 87.7598C35.5391 86.7676 35.7832 85.9668 36.2715 85.3574C36.7598 84.7441 37.4141 84.4375 38.2344 84.4375C38.6602 84.4375 39.0605 84.5312 39.4355 84.7188C39.8145 84.9023 40.0977 85.1504 40.2852 85.4629L40.2676 84.9062V82.0762L41.2344 82.0176V91H40.4023L40.2734 90.0684ZM44.7969 90.3438C45.2617 90.3438 45.6699 90.2168 46.0215 89.9629C46.377 89.7051 46.6055 89.3594 46.707 88.9258V87.8418C46.6875 87.8418 46.5684 87.8516 46.3496 87.8711C46.1348 87.8906 45.9941 87.9023 45.9277 87.9062C45.0801 87.9805 44.4883 88.1191 44.1523 88.3223C43.8203 88.5254 43.6543 88.8516 43.6543 89.3008C43.6543 89.6445 43.7559 89.9043 43.959 90.0801C44.1621 90.2559 44.4414 90.3438 44.7969 90.3438ZM46.9238 91C46.8652 90.75 46.8086 90.4805 46.7539 90.1914C46.3984 90.5469 46.0645 90.793 45.752 90.9297C45.4395 91.0664 45.0723 91.1348 44.6504 91.1348C44.0488 91.1348 43.5645 90.9785 43.1973 90.666C42.834 90.3496 42.6523 89.8965 42.6523 89.3066C42.6523 88.6504 42.9004 88.1641 43.3965 87.8477C43.8965 87.5312 44.6152 87.334 45.5527 87.2559C45.6816 87.2441 45.875 87.2285 46.1328 87.209C46.3945 87.1855 46.5898 87.168 46.7188 87.1562V86.5879C46.7188 86.1348 46.6133 85.7988 46.4023 85.5801C46.1914 85.3613 45.8594 85.252 45.4062 85.252C44.7734 85.252 44.1348 85.4082 43.4902 85.7207C43.4707 85.6738 43.4199 85.5391 43.3379 85.3164C43.2559 85.0898 43.2129 84.9727 43.209 84.9648C43.4941 84.8047 43.832 84.6777 44.2227 84.584C44.6172 84.4863 45.0176 84.4375 45.4238 84.4375C46.2246 84.4375 46.8008 84.6133 47.1523 84.9648C47.5078 85.3125 47.6855 85.9062 47.6855 86.7461V91H46.9238ZM51.4238 91.1172C50.791 91.1172 50.3418 90.9629 50.0762 90.6543C49.8105 90.3457 49.6699 89.8477 49.6543 89.1602V85.2988H48.6992L48.7402 84.6543L49.6484 84.5723L49.9824 83.1016L50.627 83.0781V84.5723H52.4141V85.2988H50.627V88.9844C50.627 89.4727 50.7012 89.8164 50.8496 90.0156C50.998 90.2148 51.252 90.3145 51.6113 90.3145C51.7402 90.3145 52.0195 90.2832 52.4492 90.2207L52.4902 90.9941C52.0254 91.0762 51.6699 91.1172 51.4238 91.1172ZM54.1777 87.8008C54.1777 88.5625 54.3457 89.1738 54.6816 89.6348C55.0215 90.0918 55.5156 90.3203 56.1641 90.3203C56.8047 90.3203 57.2871 90.0918 57.6113 89.6348C57.9395 89.1777 58.1035 88.5625 58.1035 87.7891C58.1035 87.0039 57.9414 86.3867 57.6172 85.9375C57.2969 85.4844 56.8066 85.2578 56.1465 85.2578C55.5059 85.2578 55.0176 85.4883 54.6816 85.9492C54.3457 86.4102 54.1777 87.0273 54.1777 87.8008ZM59.1172 87.7832C59.1172 88.7793 58.8516 89.5879 58.3203 90.209C57.7891 90.8262 57.0547 91.1348 56.1172 91.1348C55.2148 91.1348 54.4961 90.8223 53.9609 90.1973C53.4297 89.5723 53.1641 88.7695 53.1641 87.7891C53.1641 86.7891 53.4316 85.9805 53.9668 85.3633C54.502 84.7461 55.2363 84.4375 56.1699 84.4375C57.0879 84.4375 57.8086 84.748 58.332 85.3691C58.8555 85.9863 59.1172 86.791 59.1172 87.7832ZM62.5566 91.1172C61.9238 91.1172 61.4746 90.9629 61.209 90.6543C60.9434 90.3457 60.8027 89.8477 60.7871 89.1602V85.2988H59.832L59.873 84.6543L60.7812 84.5723L61.1152 83.1016L61.7598 83.0781V84.5723H63.5469V85.2988H61.7598V88.9844C61.7598 89.4727 61.834 89.8164 61.9824 90.0156C62.1309 90.2148 62.3848 90.3145 62.7441 90.3145C62.873 90.3145 63.1523 90.2832 63.582 90.2207L63.623 90.9941C63.1582 91.0762 62.8027 91.1172 62.5566 91.1172ZM65.3105 87.8008C65.3105 88.5625 65.4785 89.1738 65.8145 89.6348C66.1543 90.0918 66.6484 90.3203 67.2969 90.3203C67.9375 90.3203 68.4199 90.0918 68.7441 89.6348C69.0723 89.1777 69.2363 88.5625 69.2363 87.7891C69.2363 87.0039 69.0742 86.3867 68.75 85.9375C68.4297 85.4844 67.9395 85.2578 67.2793 85.2578C66.6387 85.2578 66.1504 85.4883 65.8145 85.9492C65.4785 86.4102 65.3105 87.0273 65.3105 87.8008ZM70.25 87.7832C70.25 88.7793 69.9844 89.5879 69.4531 90.209C68.9219 90.8262 68.1875 91.1348 67.25 91.1348C66.3477 91.1348 65.6289 90.8223 65.0938 90.1973C64.5625 89.5723 64.2969 88.7695 64.2969 87.7891C64.2969 86.7891 64.5645 85.9805 65.0996 85.3633C65.6348 84.7461 66.3691 84.4375 67.3027 84.4375C68.2207 84.4375 68.9414 84.748 69.4648 85.3691C69.9883 85.9863 70.25 86.791 70.25 87.7832Z" fill="white"/>
<path d="M57.8964 50.3772C61.9727 52.0179 67.211 48.3154 66.0489 45.5773C69.7855 47.2955 66.0489 58.2917 56.1979 57.2608C49.0287 56.5105 44.9881 48.3264 33.099 47.2955C22.2289 46.353 13.8272 53.939 10 58.2917C14.0763 55.5426 21.8892 50.0768 30.3814 51.4191C41.2515 53.1372 48.7247 69.9751 64.3505 66.5388C72.5943 64.7259 76.2397 60.6861 76.919 59.3116C82.6938 58.6243 86.4304 47.2955 82.0144 45.5773C82.0144 45.5773 84.9018 43.5046 83.7128 38.6938C82.5239 33.8829 77.9381 29.4157 73.8618 31.4885C69.1062 27.0103 60.4683 26.3267 54.8391 32.5084C47.955 40.0683 52.791 48.3224 57.8964 50.3772Z" fill="white"/>
</g>
<defs>
<clipPath id="clip0">
<rect width="100" height="100" fill="white"/>
</clipPath>
</defs>
</svg>

